# xmcd
# Track frame offsets:
# 150
# 18236
# 34744
# 54901
# 68505
# 85912
# 101166
# 114412
# 134266
# 153257
# 173386
# 186252
# 202388
# 217656
#
# Disc length: 3098 seconds
# Revision: 0
# Processed by: cddbd v1.5.2PL0 Copyright (c) Steve Scherf et al.
# Submitted via: VisiTrax 2.11.3.279 - For more info visit www.synapsa.com
#
DISCID=b10c180e
DTITLE=Erin Enderlin - Faulkner County
DYEAR=2019
DGENRE=
TTITLE0=I Can Be Your Whiskey
TTITLE1=Whatever Gets You Through The Night
TTITLE2=The Queen Of marina Del Rey
TTITLE3=Tonight I Don't Give A Damn
TTITLE4=Use Me Again
TTITLE5=Broken
TTITLE6=Hell Comin' Down
TTITLE7=A Man With 18 Wheels
TTITLE8=Hometown Jersey
TTITLE9=Till It's Gone
TTITLE10=These Boots (Full Band Version)
TTITLE11=Old Flames (Can't Hold A Candle To You)
TTITLE12=Sweet Emmylou
TTITLE13=Rum Baby Run
EXTD=
EXTT0=
EXTT1=
EXTT2=
EXTT3=
EXTT4=
EXTT5=
EXTT6=
EXTT7=
EXTT8=
EXTT9=
EXTT10=
EXTT11=
EXTT12=
EXTT13=
PLAYORDER=
